<svg width="142" height="192" viewBox="0 0 142 192" fill="none" xmlns="http://www.w3.org/2000/svg">
<g filter="url(#filter0_dd)">
<path d="M12 71C12 38.4152 38.4152 12 71 12C103.585 12 130 38.4152 130 71C130 103.585 103.585 130 71 130C38.4152 130 12 103.585 12 71Z" fill="#F5F5F5"/>
<path d="M13 137C13 125.954 21.9543 117 33 117H109C120.046 117 129 125.954 129 137V160C129 171.046 120.046 180 109 180H33C21.9543 180 13 171.046 13 160V137Z" fill="#F5F5F5"/>
</g>
<path d="M67.6484 161H63.8789L49.5625 139.086V161H45.793V132.562H49.5625L63.918 154.574V132.562H67.6484V161ZM96.1836 147.699C96.1836 150.486 95.7148 152.921 94.7773 155.004C93.8398 157.074 92.5117 158.656 90.793 159.75C89.0742 160.844 87.069 161.391 84.7773 161.391C82.5378 161.391 80.5521 160.844 78.8203 159.75C77.0885 158.643 75.7409 157.074 74.7773 155.043C73.8268 152.999 73.3385 150.635 73.3125 147.953V145.902C73.3125 143.168 73.7878 140.753 74.7383 138.656C75.6888 136.56 77.0299 134.958 78.7617 133.852C80.5065 132.732 82.4987 132.172 84.7383 132.172C87.0169 132.172 89.0221 132.725 90.7539 133.832C92.4987 134.926 93.8398 136.521 94.7773 138.617C95.7148 140.701 96.1836 143.129 96.1836 145.902V147.699ZM92.4531 145.863C92.4531 142.491 91.776 139.906 90.4219 138.109C89.0677 136.299 87.1732 135.395 84.7383 135.395C82.3685 135.395 80.5 136.299 79.1328 138.109C77.7786 139.906 77.082 142.406 77.043 145.609V147.699C77.043 150.967 77.7266 153.539 79.0938 155.414C80.474 157.276 82.3685 158.207 84.7773 158.207C87.1992 158.207 89.0742 157.328 90.4023 155.57C91.7305 153.799 92.4141 151.267 92.4531 147.973V145.863Z" fill="#413E4D"/>
<path d="M55.8069 98.1L61.8144 104L95.1932 71L61.7807 38L55.8069 43.9L83.2457 71L55.8069 98.1Z" fill="#413E4D"/>
<defs>
<filter id="filter0_dd" x="0" y="0" width="142" height="192" filterUnits="userSpaceOnUse" color-interpolation-filters="sRGB">
<feFlood flood-opacity="0" result="BackgroundImageFix"/>
<feColorMatrix in="SourceAlpha" type="matrix" values="0 0 0 0 0 0 0 0 0 0 0 0 0 0 0 0 0 0 127 0"/>
<feOffset dx="-6" dy="-6"/>
<feGaussianBlur stdDeviation="3"/>
<feColorMatrix type="matrix" values="0 0 0 0 1 0 0 0 0 1 0 0 0 0 1 0 0 0 1 0"/>
<feBlend mode="normal" in2="BackgroundImageFix" result="effect1_dropShadow"/>
<feColorMatrix in="SourceAlpha" type="matrix" values="0 0 0 0 0 0 0 0 0 0 0 0 0 0 0 0 0 0 127 0"/>
<feOffset dx="6" dy="6"/>
<feGaussianBlur stdDeviation="3"/>
<feColorMatrix type="matrix" values="0 0 0 0 0 0 0 0 0 0 0 0 0 0 0 0 0 0 0.25 0"/>
<feBlend mode="normal" in2="effect1_dropShadow" result="effect2_dropShadow"/>
<feBlend mode="normal" in="SourceGraphic" in2="effect2_dropShadow" result="shape"/>
</filter>
</defs>
</svg>
