<svg width="142" height="192" viewBox="0 0 142 192" fill="none" xmlns="http://www.w3.org/2000/svg">
<g filter="url(#filter0_dd)">
<path d="M12 71C12 38.4152 38.4152 12 71 12C103.585 12 130 38.4152 130 71C130 103.585 103.585 130 71 130C38.4152 130 12 103.585 12 71Z" fill="#F5F5F5"/>
<path d="M13 137C13 125.954 21.9543 117 33 117H109C120.046 117 129 125.954 129 137V160C129 171.046 120.046 180 109 180H33C21.9543 180 13 171.046 13 160V137Z" fill="#F5F5F5"/>
</g>
<path d="M47.2188 146.84L54.6406 132.562H58.8984L49.0938 150.395V161H45.3438V150.395L35.5391 132.562H39.8359L47.2188 146.84ZM78.6445 147.855H66.3203V157.934H80.6367V161H62.5703V132.562H80.4414V135.648H66.3203V144.789H78.6445V147.855ZM93.6836 148.324C90.4674 147.4 88.1237 146.267 86.6523 144.926C85.194 143.572 84.4648 141.905 84.4648 139.926C84.4648 137.686 85.3568 135.837 87.1406 134.379C88.9375 132.908 91.2682 132.172 94.1328 132.172C96.0859 132.172 97.8242 132.549 99.3477 133.305C100.884 134.06 102.069 135.102 102.902 136.43C103.749 137.758 104.172 139.21 104.172 140.785H100.402C100.402 139.066 99.8555 137.719 98.7617 136.742C97.668 135.753 96.125 135.258 94.1328 135.258C92.2839 135.258 90.8385 135.668 89.7969 136.488C88.7682 137.296 88.2539 138.422 88.2539 139.867C88.2539 141.026 88.7422 142.009 89.7188 142.816C90.7083 143.611 92.3815 144.34 94.7383 145.004C97.1081 145.668 98.957 146.404 100.285 147.211C101.626 148.005 102.616 148.936 103.254 150.004C103.905 151.072 104.23 152.328 104.23 153.773C104.23 156.078 103.332 157.927 101.535 159.32C99.7383 160.701 97.3359 161.391 94.3281 161.391C92.375 161.391 90.5521 161.02 88.8594 160.277C87.1667 159.522 85.8581 158.493 84.9336 157.191C84.0221 155.889 83.5664 154.411 83.5664 152.758H87.3359C87.3359 154.477 87.9674 155.837 89.2305 156.84C90.5065 157.829 92.2057 158.324 94.3281 158.324C96.3073 158.324 97.8242 157.921 98.8789 157.113C99.9336 156.306 100.461 155.206 100.461 153.812C100.461 152.419 99.9727 151.345 98.9961 150.59C98.0195 149.822 96.2487 149.066 93.6836 148.324Z" fill="#413E4D"/>
<path d="M84.1931 43.9L78.1856 38L44.8068 71L78.2193 104L84.1931 98.1L56.7543 71L84.1931 43.9Z" fill="#413E4D"/>
<defs>
<filter id="filter0_dd" x="0" y="0" width="142" height="192" filterUnits="userSpaceOnUse" color-interpolation-filters="sRGB">
<feFlood flood-opacity="0" result="BackgroundImageFix"/>
<feColorMatrix in="SourceAlpha" type="matrix" values="0 0 0 0 0 0 0 0 0 0 0 0 0 0 0 0 0 0 127 0"/>
<feOffset dx="-6" dy="-6"/>
<feGaussianBlur stdDeviation="3"/>
<feColorMatrix type="matrix" values="0 0 0 0 1 0 0 0 0 1 0 0 0 0 1 0 0 0 1 0"/>
<feBlend mode="normal" in2="BackgroundImageFix" result="effect1_dropShadow"/>
<feColorMatrix in="SourceAlpha" type="matrix" values="0 0 0 0 0 0 0 0 0 0 0 0 0 0 0 0 0 0 127 0"/>
<feOffset dx="6" dy="6"/>
<feGaussianBlur stdDeviation="3"/>
<feColorMatrix type="matrix" values="0 0 0 0 0 0 0 0 0 0 0 0 0 0 0 0 0 0 0.25 0"/>
<feBlend mode="normal" in2="effect1_dropShadow" result="effect2_dropShadow"/>
<feBlend mode="normal" in="SourceGraphic" in2="effect2_dropShadow" result="shape"/>
</filter>
</defs>
</svg>
