<?xml version="1.0" encoding="iso-8859-1"?>
<!-- Generator: Adobe Illustrator 19.0.0, SVG Export Plug-In . SVG Version: 6.00 Build 0)  -->
<svg version="1.1" id="Capa_1" height="50" width="50" xmlns="http://www.w3.org/2000/svg" xmlns:xlink="http://www.w3.org/1999/xlink" x="0px" y="0px"
	 viewBox="0 0 511.999 511.999" style="enable-background:new 0 0 511.999 511.999;" xml:space="preserve">
<g>
	<g>
		<path d="M507.622,353.679l-91.685-61.101c-1.171-47.466-12.958-85.534-35.097-113.226c-22.102-27.647-53.926-44.234-94.847-49.509
			v-11.844c0-16.542-13.463-30-30.011-30s-30.011,13.458-30.011,30v11.897c-40.255,5.327-71.818,21.88-94.065,49.415
			c-22.623,28.001-34.672,66.081-35.876,113.265c0,0-91.458,60.95-91.688,61.103c-6.335,4.222-5.592,14.121,1.277,17.364
			c1.154,0.544,28.771,13.486,73.545,26.556c41.259,12.043,105.427,26.4,176.817,26.4s135.558-14.357,176.817-26.401
			c44.759-13.066,72.374-26.003,73.544-26.556C513.278,367.77,513.99,357.922,507.622,353.679z M395.959,293.594
			c-10.572,3.77-33.757,11.315-64.063,17.024c-0.964-52.636-6.679-117.92-42.125-160.032
			C358.455,161.829,394.121,209.781,395.959,293.594z M255.981,107.999c5.516,0,10.004,4.486,10.004,10v10h-20.007v-10h-0.001
			C245.977,112.485,250.465,107.999,255.981,107.999z M229.919,174.199c10.972-17.523,21.653-23.7,26.151-25.656
			c9.995,4.469,54.035,31.848,55.867,165.371c-17.279,2.452-36.183,4.085-55.956,4.085c-19.703,0-38.543-1.622-55.773-4.059
			C201.283,236.226,216.814,195.129,229.919,174.199z M222.317,150.657c-2.513,2.992-5.06,6.369-7.595,10.194
			c-21.675,32.709-33.251,83.074-34.469,149.803c-30.393-5.713-53.649-13.28-64.243-17.057
			C117.45,232.988,138.568,164.812,222.317,150.657z M255.981,403.999c-101.633,0-189.55-29.992-225.06-43.997l25.977-17.312
			c24.314,8.144,51.109,16.521,82.31,23.548c38.222,8.595,77.569,13.76,116.773,13.76c24.519,0,50.158-2.04,76.228-6.05
			c5.441-0.84,9.192-5.958,8.354-11.407c-0.825-5.361-6.058-9.185-11.405-8.363c-25.049,3.86-49.668,5.82-73.177,5.82h-0.07
			c-66.726,0-126.63-14.996-177.846-31.415l26.703-17.795c13.48,5.159,75.534,27.211,151.213,27.211s137.733-22.052,151.213-27.211
			l26.724,17.809c-8.59,2.761-17.925,5.639-27.898,8.48c-5.176,1.475-8.345,7.201-6.877,12.356c1.444,5.072,7.339,8.28,12.366,6.884
			c16.362-4.668,31.025-9.421,43.558-13.627L481.041,360C445.53,374.008,357.614,403.999,255.981,403.999z"/>
	</g>
</g>
<g>
	<g>
		<circle cx="370.019" cy="356.999" r="10"/>
	</g>
</g>
<g>
</g>
<g>
</g>
<g>
</g>
<g>
</g>
<g>
</g>
<g>
</g>
<g>
</g>
<g>
</g>
<g>
</g>
<g>
</g>
<g>
</g>
<g>
</g>
<g>
</g>
<g>
</g>
<g>
</g>
</svg>
