<?xml version="1.0" encoding="iso-8859-1"?>
<!-- Generator: Adobe Illustrator 19.0.0, SVG Export Plug-In . SVG Version: 6.00 Build 0)  -->
<svg version="1.1" id="Layer_1" height="50" width="50" xmlns="http://www.w3.org/2000/svg" xmlns:xlink="http://www.w3.org/1999/xlink" x="0px" y="0px"
	 viewBox="0 0 511.999 511.999" style="enable-background:new 0 0 511.999 511.999;" xml:space="preserve">
<g>
	<g>
		<path d="M508.485,340.046c-3.367-2.921-8.241-3.319-12.036-0.981c-40.725,25.091-85.844,37.371-130.179,37.369
			c-60.407-0.003-119.344-22.808-163.62-67.085c-76.772-76.772-88.993-197.588-29.717-293.8c2.339-3.795,1.941-8.669-0.981-12.035
			c-2.922-3.367-7.693-4.444-11.778-2.663C62.872,43.275,0,139.251,0,245.361c0,71.221,27.736,138.18,78.097,188.541
			s117.319,78.096,188.541,78.096c106.11,0,202.086-62.872,244.51-160.175C512.929,347.738,511.852,342.968,508.485,340.046z
			 M266.638,491.6c-135.778,0-246.24-110.462-246.24-246.239c0-87.23,46.012-167.045,119.5-211.164
			c-19.517,42.689-27.764,90.009-23.386,136.222c2.711,28.615,10.081,56.16,21.905,81.871c12.244,26.622,29.002,50.672,49.811,71.48
			c20.808,20.808,44.858,37.568,71.481,49.811c25.71,11.825,53.255,19.194,81.87,21.905c46.218,4.379,93.536-3.869,136.223-23.387
			C433.684,445.589,353.867,491.6,266.638,491.6z"/>
	</g>
</g>
<g>
	<g>
		<path d="M265.449,451.823c-61.544,0-119.314-27.271-158.496-74.818c-3.584-4.348-10.01-4.967-14.357-1.385
			c-4.347,3.583-4.967,10.01-1.385,14.357c43.072,52.267,106.58,82.244,174.239,82.244c5.632,0,10.199-4.566,10.199-10.199
			C275.648,456.39,271.081,451.823,265.449,451.823z"/>
	</g>
</g>
<g>
	<g>
		<path d="M87.376,348.734c-2.784-4.84-5.399-9.851-7.773-14.896c-2.398-5.096-8.475-7.286-13.571-4.886
			c-5.098,2.398-7.285,8.474-4.886,13.571c2.61,5.548,5.486,11.06,8.547,16.383c1.887,3.281,5.32,5.116,8.851,5.116
			c1.725,0,3.473-0.438,5.076-1.362C88.502,359.852,90.184,353.618,87.376,348.734z"/>
	</g>
</g>
<g>
</g>
<g>
</g>
<g>
</g>
<g>
</g>
<g>
</g>
<g>
</g>
<g>
</g>
<g>
</g>
<g>
</g>
<g>
</g>
<g>
</g>
<g>
</g>
<g>
</g>
<g>
</g>
<g>
</g>
</svg>
