<svg id="Layer_1" enable-background="new 0 0 512.028 512.028" height="50px" width="50px" viewBox="0 0 512.028 512.028"  xmlns="http://www.w3.org/2000/svg"><g><path d="m245.878 401.211c45.372-13.764 78.511-78.08 78.511-134.299 0-30.519-9.836-55.667-28.444-72.729-17.052-15.634-40.521-23.897-67.87-23.897-14.748 0-28.615 2.501-40.895 7.295 3.541-13.639 5.462-27.624 5.462-41.141 0-30.519-9.836-55.668-28.445-72.729-17.051-15.634-40.521-23.897-67.869-23.897-47.818 0-82.575 25.235-92.975 67.505-.99 4.022 1.469 8.085 5.491 9.075 4.023.993 8.085-1.469 9.075-5.491 8.77-35.646 37.349-56.089 78.409-56.089 23.531 0 43.495 6.9 57.732 19.953 15.427 14.145 23.582 35.47 23.582 61.673 0 28.167-9.274 59.309-24.809 83.303-15.915 24.582-36.51 38.68-56.505 38.68-33.683 0-75.144-45.213-80.783-110.093-.359-4.126-3.991-7.19-8.121-6.822-4.126.358-7.181 3.995-6.822 8.121 4.571 52.595 35.854 108.452 77.917 121.127l-3.848 11.669c-3.351 10.164 3.438 21.413 13.944 23.253v24.51c0 6.186-2.179 11.775-4.485 17.692-3.957 10.148-8.44 21.65-1.815 36.668 5.304 12.025 15.097 19.921 16.428 33.538-.356 12.332-11.662 21.379-16.382 32.081-6.625 15.019-2.142 26.521 1.815 36.668 2.307 5.917 4.485 11.506 4.485 17.692 0 4.142 3.358 7.5 7.5 7.5s7.5-3.358 7.5-7.5c0-9.006-2.927-16.515-5.51-23.14-3.586-9.2-6.178-15.847-2.067-25.166 6.089-13.8 17.669-22.555 17.669-38.863 0-16.245-11.666-25.153-17.715-38.864-4.111-9.319-1.52-15.966 2.067-25.166 2.583-6.625 5.51-14.134 5.51-23.14v-24.446c10.684-1.607 17.787-12.957 14.37-23.318l-3.854-11.687c6.144-1.864 12.064-4.651 17.707-8.223-1.597 50.915 24.749 122.409 78.434 138.694l-3.854 11.686c-3.379 10.244 3.543 21.559 14.157 23.286v68.345c0 4.142 3.358 7.5 7.5 7.5s7.5-3.358 7.5-7.5v-68.345c10.579-1.721 17.548-13.005 14.157-23.286zm-142.138-114.088c.38 2.219-.543 3.494-2.771 3.826h-9.282c-2.228-.332-3.151-1.608-2.771-3.826l4.543-13.775c1.913.101 3.826.101 5.739.001zm67.83 63.092c-15.534-23.995-24.809-55.136-24.809-83.304 0-5.856.402-11.525 1.195-16.849.03-.199.044-.396.058-.593 13.719-13.629 24.996-31.968 32.782-52.075 12.938-7.918 29.268-12.108 47.279-12.108 23.531 0 43.495 6.9 57.732 19.953 15.427 14.144 23.582 35.47 23.582 61.672 0 28.167-9.274 59.309-24.809 83.304-15.915 24.582-36.51 38.68-56.505 38.68s-40.591-14.098-56.505-38.68zm63.51 69.998c-.326.451-1.067 1.208-2.365 1.208h-9.282c-2.228-.332-3.151-1.608-2.771-3.826l4.542-13.774c1.913.1 3.826.1 5.739 0l4.542 13.775c.407 1.228-.079 2.167-.405 2.617z"/><path d="m245.283 217.456c8.127 1.943 14.876 5.338 20.06 10.091 5.12 4.694 8.858 10.969 11.112 18.652 2.687 9.156 17.132 5.113 14.394-4.224-3.035-10.342-8.206-18.917-15.369-25.485-7.086-6.497-16.072-11.08-26.709-13.624-4.031-.965-8.075 1.521-9.039 5.55-.963 4.031 1.523 8.077 5.551 9.04z"/><path d="m133.596 97.076c5.119 4.693 8.858 10.969 11.113 18.652 2.687 9.156 17.133 5.111 14.393-4.224-3.036-10.344-8.207-18.918-15.369-25.485-7.085-6.496-16.071-11.08-26.708-13.623-4.029-.964-8.075 1.522-9.039 5.55-.963 4.029 1.522 8.075 5.55 9.039 8.127 1.944 14.876 5.339 20.06 10.091z"/><path d="m434.242 230.745c8.693-2.735 17.169-7.396 25.342-13.985 3.225-2.6 3.731-7.321 1.132-10.546s-7.321-3.732-10.546-1.132c-11.157 8.994-22.754 13.555-34.47 13.555-19.995 0-40.59-14.099-56.505-38.68-15.535-23.995-24.809-55.136-24.809-83.304 0-26.202 8.154-47.528 23.582-61.672 14.238-13.054 34.201-19.953 57.732-19.953s43.495 6.899 57.732 19.953c15.427 14.144 23.582 35.47 23.582 61.672 0 27.101-8.31 56.292-22.798 80.088-2.154 3.538-1.032 8.152 2.506 10.307 3.538 2.154 8.152 1.031 10.307-2.506 15.879-26.08 24.986-58.114 24.986-87.889 0-30.519-9.836-55.668-28.444-72.729-17.053-15.633-40.522-23.896-67.871-23.896s-50.818 8.263-67.869 23.896c-18.609 17.061-28.445 42.21-28.445 72.729 0 56.045 32.935 120.133 78.09 134.166l-3.265 9.902c-3.358 10.181 3.46 21.445 13.989 23.261v33.572c0 11.869-2.788 18.773-5.483 25.451-6.929 17.165-3.112 30.845 7.362 45.659 4.589 6.491 8.214 11.618 8.214 19.393 0 12.704-11.567 21.867-16.393 32.81-9.166 20.779 6.3 34.401 6.3 54.36v29.302c0 4.142 3.358 7.5 7.5 7.5s7.5-3.358 7.5-7.5v-29.302c0-16.303-14.641-32.292-7.577-48.306 6.089-13.8 17.669-22.555 17.669-38.863 0-12.542-5.826-20.782-10.966-28.053-7.656-10.827-10.821-18.699-5.7-31.384 2.929-7.255 6.574-16.284 6.574-31.066v-33.521c10.658-1.631 17.737-12.965 14.326-23.306zm-11.369 17.293c-.326.451-1.067 1.208-2.364 1.208h-9.282c-2.227-.332-3.151-1.608-2.771-3.827l3.919-11.885c2.329.145 4.658.138 6.987-.02l3.917 11.905c.405 1.229-.08 2.169-.406 2.619z"/><path d="m478.474 71.718c-3.035-10.342-8.206-18.917-15.369-25.485-7.086-6.496-16.072-11.08-26.708-13.623-4.031-.962-8.075 1.521-9.039 5.55-.963 4.029 1.522 8.075 5.55 9.039 8.127 1.943 14.876 5.338 20.06 10.09 5.12 4.695 8.859 10.97 11.113 18.653 2.687 9.156 17.132 5.112 14.393-4.224z"/><path d="m135.014 15.028c9.652 0 9.668-15 0-15-9.652 0-9.668 15 0 15z"/><path d="m296.889 29.528c9.652 0 9.668-15 0-15-9.652 0-9.668 15 0 15z"/><path d="m265.34 143.528c9.652 0 9.668-15 0-15-9.652 0-9.668 15 0 15z"/><path d="m357.014 290.949c-9.652 0-9.668 15 0 15 9.652 0 9.668-15 0-15z"/><path d="m7.259 277.671c9.652 0 9.668-15 0-15-9.652 0-9.668 15 0 15z"/><path d="m7.514 497.028c-9.652 0-9.668 15 0 15 9.652 0 9.668-15 0-15z"/><path d="m42.514 334.528c-9.652 0-9.668 15 0 15 9.652 0 9.668-15 0-15z"/><path d="m484.916 407.952c-9.652 0-9.668 15 0 15 9.652 0 9.668-15 0-15z"/><path d="m465.319 336.528c-9.652 0-9.668 15 0 15 9.651 0 9.667-15 0-15z"/><path d="m155.014 469.223c-9.652 0-9.668 15 0 15 9.652 0 9.668-15 0-15z"/><path d="m7.514 34.626c1.919 0 3.839-.732 5.303-2.197l19.598-19.598c6.637-6.636-3.668-17.545-10.606-10.606l-19.598 19.598c-4.524 4.523-1.477 12.803 5.303 12.803z"/><path d="m238.57 76.016c6.69 6.69 17.359-3.855 10.606-10.606l-19.598-19.598c-6.636-6.636-17.546 3.668-10.606 10.606z"/><path d="m342.553 387.042-19.598 19.598c-6.63 6.629 3.765 17.448 10.606 10.606l19.598-19.598c6.637-6.636-3.668-17.545-10.606-10.606z"/><path d="m32.415 410.149c-6.636-6.636-17.546 3.668-10.606 10.606l19.598 19.598c6.69 6.69 17.359-3.855 10.606-10.606z"/><path d="m470.622 479.627c-6.636-6.636-17.546 3.668-10.606 10.606l19.598 19.598c6.69 6.69 17.359-3.855 10.606-10.606z"/><path d="m509.817 247.841c-2.929-2.929-7.678-2.929-10.606 0l-19.598 19.598c-6.63 6.629 3.765 17.448 10.606 10.606l19.598-19.598c2.929-2.928 2.929-7.677 0-10.606z"/><path d="m292.393 479.627c-6.636-6.636-17.546 3.668-10.606 10.606l19.598 19.598c6.69 6.69 17.359-3.855 10.606-10.606z"/></g></svg>