<?xml version="1.0" encoding="iso-8859-1"?>
<!-- Generator: Adobe Illustrator 19.0.0, SVG Export Plug-In . SVG Version: 6.00 Build 0)  -->
<svg version="1.1" id="Capa_1" height="50" width="50" xmlns="http://www.w3.org/2000/svg" xmlns:xlink="http://www.w3.org/1999/xlink" x="0px" y="0px"
	 viewBox="0 0 512.001 512.001" style="enable-background:new 0 0 512.001 512.001;" xml:space="preserve">
<g>
	<g>
		<path d="M502.641,108.382l-24.668-24.667c-3.905-3.904-10.237-3.904-14.142,0c-3.905,3.905-3.905,10.237,0,14.143l24.667,24.667
			c4.681,4.681,4.681,12.298,0,16.979c-4.679,4.681-12.297,4.684-16.979,0L441.814,109.8c-0.001,0-0.001-0.001-0.001-0.001
			l-39.61-39.61c-0.001-0.001-0.002-0.002-0.003-0.003l-29.704-29.704c-4.681-4.681-4.681-12.297,0-16.979
			c4.681-4.683,12.298-4.681,16.979,0l20.17,20.17c3.905,3.904,10.237,3.904,14.143,0c3.905-3.905,3.905-10.237,0-14.143
			L403.619,9.36c-12.479-12.479-32.785-12.479-45.264,0s-12.479,32.784,0,45.264l22.636,22.636l-39.214,39.214l-24.05-24.05
			l-11.435-11.435c-3.905-3.904-10.237-3.904-14.143,0c-3.905,3.905-3.905,10.237,0,14.143l4.363,4.363L128.618,267.388
			c-23.955,23.955-29.963,59.161-18.032,88.763l-38.995,38.995c-6.045,6.045-9.374,14.083-9.374,22.633
			c0,5.099,1.193,10.011,3.431,14.432L2.929,494.929c-3.905,3.905-3.905,10.237,0,14.143c1.953,1.952,4.512,2.929,7.071,2.929
			s5.119-0.977,7.071-2.929l62.719-62.718c4.421,2.238,9.333,3.431,14.432,3.431c8.549,0,16.586-3.329,22.632-9.374l38.996-38.996
			c9.842,3.967,20.303,5.953,30.765,5.953c21.004,0,42.007-7.995,57.997-23.984l167.894-167.893l4.363,4.363
			c1.953,1.952,4.512,2.929,7.071,2.929s5.119-0.977,7.071-2.929c3.905-3.905,3.905-10.237,0-14.143l-11.429-11.429
			c-0.002-0.002-0.003-0.003-0.005-0.005l-24.05-24.05l39.214-39.214l22.635,22.636c6.045,6.045,14.083,9.374,22.632,9.374
			c8.549,0,16.586-3.329,22.633-9.374C515.12,141.167,515.12,120.862,502.641,108.382z M102.712,426.268
			c-2.267,2.268-5.282,3.517-8.489,3.517s-6.221-1.249-8.489-3.517c-4.681-4.681-4.681-12.298,0-16.979l35.022-35.022
			c2.364,3.181,4.978,6.233,7.862,9.117c2.884,2.884,5.935,5.498,9.116,7.861L102.712,426.268z M398.361,201.348l-28.529,28.53
			l-19.571-19.571c-3.905-3.904-10.237-3.904-14.142,0c-3.905,3.905-3.905,10.237,0,14.143l19.571,19.57l-33.011,33.011
			l-19.571-19.571c-3.905-3.904-10.237-3.904-14.143,0c-3.905,3.905-3.905,10.237,0,14.143l19.571,19.571l-33.011,33.011
			l-19.571-19.571c-3.905-3.904-10.237-3.904-14.143,0c-3.905,3.905-3.905,10.237,0,14.143l19.571,19.571l-30.912,30.912
			c-0.704,0.704-1.423,1.383-2.152,2.045L208.8,351.769c-3.905-3.904-10.237-3.904-14.143,0c-3.905,3.905-3.905,10.237,0,14.143
			l16.439,16.439c-22.631,9.691-49.891,5.333-68.337-13.11c-24.182-24.182-24.182-63.528,0-87.71l167.893-167.893L398.361,201.348z
			 M381.385,156.083l-25.467-25.467l39.214-39.214l25.467,25.467L381.385,156.083z"/>
	</g>
</g>
<g>
	<g>
		<path d="M453.134,58.868c-1.86-1.86-4.44-2.93-7.07-2.93c-2.64,0-5.21,1.069-7.08,2.93c-1.86,1.86-2.92,4.439-2.92,7.07
			c0,2.64,1.06,5.21,2.92,7.069c1.87,1.87,4.45,2.94,7.08,2.94c2.63,0,5.2-1.07,7.07-2.94c1.86-1.859,2.93-4.43,2.93-7.069
			C456.064,63.307,454.994,60.728,453.134,58.868z"/>
	</g>
</g>
<g>
	<g>
		<path d="M261.38,208.608c-3.905-3.904-10.237-3.904-14.142,0l-77.261,77.261c-3.905,3.905-3.905,10.237,0,14.143
			c1.953,1.952,4.512,2.929,7.071,2.929s5.119-0.977,7.071-2.929l77.261-77.261C265.285,218.847,265.285,212.515,261.38,208.608z"/>
	</g>
</g>
<g>
	<g>
		<path d="M286.289,183.701c-1.86-1.87-4.44-2.93-7.07-2.93c-2.63,0-5.21,1.06-7.07,2.93c-1.86,1.859-2.93,4.43-2.93,7.07
			c0,2.63,1.07,5.21,2.93,7.069c1.86,1.86,4.44,2.931,7.07,2.931c2.63,0,5.21-1.07,7.07-2.931c1.86-1.859,2.93-4.439,2.93-7.069
			C289.219,188.13,288.149,185.56,286.289,183.701z"/>
	</g>
</g>
<g>
</g>
<g>
</g>
<g>
</g>
<g>
</g>
<g>
</g>
<g>
</g>
<g>
</g>
<g>
</g>
<g>
</g>
<g>
</g>
<g>
</g>
<g>
</g>
<g>
</g>
<g>
</g>
<g>
</g>
</svg>
