<svg width="121" height="120" viewBox="0 0 121 120" fill="none" xmlns="http://www.w3.org/2000/svg">
<g id="cloud_upload_24px">
<path id="icon/file/cloud_upload_24px" fill-rule="evenodd" clip-rule="evenodd" d="M97.1533 50.2C93.7533 32.95 78.6033 20 60.4033 20C45.9533 20 33.4033 28.2 27.1533 40.2C12.1033 41.8 0.40332 54.55 0.40332 70C0.40332 86.55 13.8533 100 30.4033 100H95.4033C109.203 100 120.403 88.8 120.403 75C120.403 61.8 110.153 51.1 97.1533 50.2ZM95.4033 90H30.4033C19.3533 90 10.4033 81.05 10.4033 70C10.4033 59.75 18.0533 51.2 28.2033 50.15L33.5533 49.6L36.0533 44.85C40.8033 35.7 50.1033 30 60.4033 30C73.5033 30 84.8033 39.3 87.3533 52.15L88.8533 59.65L96.5033 60.2C104.303 60.7 110.403 67.25 110.403 75C110.403 83.25 103.653 90 95.4033 90ZM53.1534 65H40.4034L60.4034 45L80.4034 65H67.6534V80H53.1534V65Z" fill="#B1B1B1" fill-opacity="0.54"/>
</g>
</svg>
