<svg width="220" height="235" viewBox="0 0 220 235" fill="none" xmlns="http://www.w3.org/2000/svg">
<g id="cloud_upload_24px">
<path id="icon/file/cloud_upload_24px" fill-rule="evenodd" clip-rule="evenodd" d="M177.182 98.3083C170.969 64.5271 143.288 39.1667 110.033 39.1667C83.6308 39.1667 60.6999 55.225 49.2801 78.725C21.7812 81.8583 0.40332 106.827 0.40332 137.083C0.40332 169.494 24.9787 195.833 55.2184 195.833H173.984C199.199 195.833 219.663 173.9 219.663 146.875C219.663 121.025 200.935 100.071 177.182 98.3083ZM173.984 176.25H55.2184C35.0282 176.25 18.675 158.723 18.675 137.083C18.675 117.01 32.6528 100.267 51.1986 98.2104L60.9739 97.1333L65.5419 87.8312C74.2209 69.9125 91.2136 58.75 110.033 58.75C133.969 58.75 154.616 76.9625 159.276 102.127L162.016 116.815L175.994 117.892C190.246 118.871 201.392 131.698 201.392 146.875C201.392 163.031 189.058 176.25 173.984 176.25ZM96.7864 127.292H73.4901L110.033 88.125L146.577 127.292H123.28V156.667H96.7864V127.292Z" fill="#B1B1B1" fill-opacity="0.54"/>
</g>
</svg>
