<svg width="50" height="48" viewBox="0 0 50 48" fill="none" xmlns="http://www.w3.org/2000/svg">
<g id="alert/error_outline_24px">
<path id="icon/outlined/alert/error_outline_24px" fill-rule="evenodd" clip-rule="evenodd" d="M24.9792 4.16666C13.4792 4.16666 4.16669 13.5 4.16669 25C4.16669 36.5 13.4792 45.8333 24.9792 45.8333C36.5 45.8333 45.8334 36.5 45.8334 25C45.8334 13.5 36.5 4.16666 24.9792 4.16666ZM27.0834 27.0833V14.5833H22.9167V27.0833H27.0834ZM27.0834 35.4167V31.25H22.9167V35.4167H27.0834ZM8.33335 25C8.33335 34.2083 15.7917 41.6667 25 41.6667C34.2084 41.6667 41.6667 34.2083 41.6667 25C41.6667 15.7917 34.2084 8.33332 25 8.33332C15.7917 8.33332 8.33335 15.7917 8.33335 25Z" fill="black" fill-opacity="0.54"/>
</g>
</svg>
