<svg width="14" height="17" viewBox="0 0 14 17" fill="none" xmlns="http://www.w3.org/2000/svg">
<path fill-rule="evenodd" clip-rule="evenodd" d="M8.5 3.09091C8.5 3.94091 7.81227 4.63636 6.95455 4.63636C6.10455 4.63636 5.40909 3.94091 5.40909 3.09091C5.40909 2.79727 5.48636 2.52682 5.63318 2.295L6.95455 0L8.27591 2.295C8.42273 2.52682 8.5 2.79727 8.5 3.09091ZM7.72727 6.95455H11.5909C12.8736 6.95455 13.9091 7.99 13.9091 9.27273V16.2273C13.9091 16.6523 13.5614 17 13.1364 17H0.772727C0.347727 17 0 16.6523 0 16.2273V9.27273C0 7.99 1.03545 6.95455 2.31818 6.95455H6.18182V5.40909H7.72727V6.95455ZM12.3636 15.4546H1.54545V13.1364C2.24091 13.1286 2.90545 12.8505 3.4 12.3559L4.24227 11.5291L5.06909 12.3559C6.08136 13.3682 7.84318 13.3605 8.84773 12.3559L9.68227 11.5291L10.5091 12.3559C11.0036 12.8505 11.6682 13.1286 12.3636 13.1364V15.4546ZM11.3205 11.5368C11.5986 11.8227 11.9695 11.9695 12.3636 11.9773V9.27273C12.3636 8.84773 12.0159 8.5 11.5909 8.5H2.31818C1.89318 8.5 1.54545 8.84773 1.54545 9.27273V11.9773C1.93955 11.9695 2.31045 11.815 2.58091 11.5368L4.23455 9.89091L5.88046 11.5368C6.45227 12.1086 7.44909 12.1086 8.02091 11.5368L9.67455 9.89091L11.3205 11.5368Z" fill="white"/>
</svg>
