<svg width="15" height="15" viewBox="0 0 15 15" fill="none" xmlns="http://www.w3.org/2000/svg">
<g clip-path="url(#clip0)">
<path d="M9.3749 8.12595C9.02929 8.12595 8.74995 8.40599 8.74995 8.75091V11.251C8.74995 11.5953 8.46991 11.8759 8.12488 11.8759H6.2499V2.50101C6.2499 1.96726 5.9099 1.49039 5.39869 1.31289L5.21364 1.25098H8.12488C8.46991 1.25098 8.74995 1.53159 8.74995 1.87605V3.75103C8.74995 4.09595 9.02929 4.37599 9.3749 4.37599C9.72051 4.37599 9.99986 4.09595 9.99986 3.75103V1.87605C9.99986 0.842315 9.15861 0.00106812 8.12488 0.00106812H1.40624C1.38243 0.00106812 1.36252 0.011711 1.3394 0.0148009C1.3093 0.0122832 1.28058 0.00106812 1.25003 0.00106812C0.56064 0.00106812 0 0.561594 0 1.25098V12.5009C0 13.0346 0.34 13.5115 0.851203 13.689L4.61249 14.9428C4.73998 14.9822 4.86678 15.0009 4.99999 15.0009C5.68937 15.0009 6.2499 14.4403 6.2499 13.7509V13.1259H8.12488C9.15861 13.1259 9.99986 12.2847 9.99986 11.251V8.75091C9.99986 8.40599 9.72051 8.12595 9.3749 8.12595Z" fill="white"/>
<path d="M14.8167 5.80823L12.3167 3.30829C12.138 3.12954 11.8692 3.07575 11.6355 3.17257C11.4024 3.2695 11.2499 3.49758 11.2499 3.75014V5.62513H8.74995C8.40491 5.62513 8.12488 5.90504 8.12488 6.25008C8.12488 6.59512 8.40491 6.87504 8.74995 6.87504H11.2499V8.75002C11.2499 9.00258 11.4024 9.23066 11.6355 9.32759C11.8692 9.42441 12.138 9.37062 12.3167 9.19198L14.8167 6.69193C15.0611 6.4476 15.0611 6.05256 14.8167 5.80823Z" fill="white"/>
</g>
<defs>
<clipPath id="clip0">
<rect width="15" height="15" fill="white"/>
</clipPath>
</defs>
</svg>
