<svg width="335" height="218" viewBox="0 0 335 218" fill="none" xmlns="http://www.w3.org/2000/svg">
<path fill-rule="evenodd" clip-rule="evenodd" d="M322.5 114.5H264.167C259.583 114.5 255.833 118.55 255.833 123.5V186.5C255.833 191.45 259.583 195.5 264.167 195.5H322.5C327.083 195.5 330.833 191.45 330.833 186.5V123.5C330.833 118.55 327.083 114.5 322.5 114.5ZM239.167 132.5H247.5V204.5H314.167V213.5H247.5C242.917 213.5 239.167 209.45 239.167 204.5V132.5ZM290.042 172.235L301.5 156.305L316.25 177.5H270.417L281.875 161.615L290.042 172.235ZM264.167 186.5H322.5V123.5H264.167V186.5Z" fill="#B1B1B1" fill-opacity="0.54"/>
<path fill-rule="evenodd" clip-rule="evenodd" d="M87.5001 4.5H29.1668C24.5835 4.5 20.8335 8.55 20.8335 13.5V76.5C20.8335 81.45 24.5835 85.5 29.1668 85.5H87.5001C92.0835 85.5 95.8335 81.45 95.8335 76.5V13.5C95.8335 8.55 92.0835 4.5 87.5001 4.5ZM4.16675 22.5H12.5001V94.5H79.1667V103.5H12.5001C7.91675 103.5 4.16675 99.45 4.16675 94.5V22.5ZM55.0418 62.235L66.5001 46.305L81.2501 67.5H35.4168L46.8751 51.615L55.0418 62.235ZM29.1667 76.5H87.5001V13.5H29.1667V76.5Z" fill="#B1B1B1" fill-opacity="0.54"/>
<path fill-rule="evenodd" clip-rule="evenodd" d="M205.5 4.5H147.167C142.583 4.5 138.833 8.55 138.833 13.5V76.5C138.833 81.45 142.583 85.5 147.167 85.5H205.5C210.083 85.5 213.833 81.45 213.833 76.5V13.5C213.833 8.55 210.083 4.5 205.5 4.5ZM122.167 22.5H130.5V94.5H197.167V103.5H130.5C125.917 103.5 122.167 99.45 122.167 94.5V22.5ZM173.042 62.235L184.5 46.305L199.25 67.5H153.417L164.875 51.615L173.042 62.235ZM147.167 76.5H205.5V13.5H147.167V76.5Z" fill="#B1B1B1" fill-opacity="0.54"/>
<path fill-rule="evenodd" clip-rule="evenodd" d="M87.5001 114.5H29.1668C24.5835 114.5 20.8335 118.55 20.8335 123.5V186.5C20.8335 191.45 24.5835 195.5 29.1668 195.5H87.5001C92.0835 195.5 95.8335 191.45 95.8335 186.5V123.5C95.8335 118.55 92.0835 114.5 87.5001 114.5ZM4.16675 132.5H12.5001V204.5H79.1667V213.5H12.5001C7.91675 213.5 4.16675 209.45 4.16675 204.5V132.5ZM55.0418 172.235L66.5001 156.305L81.2501 177.5H35.4168L46.8751 161.615L55.0418 172.235ZM29.1667 186.5H87.5001V123.5H29.1667V186.5Z" fill="#B1B1B1" fill-opacity="0.54"/>
<path fill-rule="evenodd" clip-rule="evenodd" d="M205.5 114.5H147.167C142.583 114.5 138.833 118.55 138.833 123.5V186.5C138.833 191.45 142.583 195.5 147.167 195.5H205.5C210.083 195.5 213.833 191.45 213.833 186.5V123.5C213.833 118.55 210.083 114.5 205.5 114.5ZM122.167 132.5H130.5V204.5H197.167V213.5H130.5C125.917 213.5 122.167 209.45 122.167 204.5V132.5ZM173.042 172.235L184.5 156.305L199.25 177.5H153.417L164.875 161.615L173.042 172.235ZM147.167 186.5H205.5V123.5H147.167V186.5Z" fill="#B1B1B1" fill-opacity="0.54"/>
<path fill-rule="evenodd" clip-rule="evenodd" d="M322.5 4.5H264.167C259.583 4.5 255.833 8.55 255.833 13.5V76.5C255.833 81.45 259.583 85.5 264.167 85.5H322.5C327.083 85.5 330.833 81.45 330.833 76.5V13.5C330.833 8.55 327.083 4.5 322.5 4.5ZM239.167 22.5H247.5V94.5H314.167V103.5H247.5C242.917 103.5 239.167 99.45 239.167 94.5V22.5ZM290.042 62.235L301.5 46.305L316.25 67.5H270.417L281.875 51.615L290.042 62.235ZM264.167 76.5H322.5V13.5H264.167V76.5Z" fill="#B1B1B1" fill-opacity="0.54"/>
</svg>
