<svg width="182" height="199" viewBox="0 0 182 199" fill="none" xmlns="http://www.w3.org/2000/svg">
<g id="filter_24px">
<path id="icon/image/filter_24px" fill-rule="evenodd" clip-rule="evenodd" d="M159.25 9.11446H53.0833C44.7416 9.11446 37.9166 16.5151 37.9166 25.5602V140.681C37.9166 149.726 44.7416 157.127 53.0833 157.127H159.25C167.592 157.127 174.417 149.726 174.417 140.681V25.5602C174.417 16.5151 167.592 9.11446 159.25 9.11446ZM7.58325 42.006H22.7499V173.572H144.083V190.018H22.7499C14.4083 190.018 7.58325 182.617 7.58325 173.572V42.006ZM100.176 114.614L121.03 85.5052L147.875 124.235H64.4583L85.3124 95.2082L100.176 114.614ZM53.0833 140.681H159.25V25.5602H53.0833V140.681Z" fill="#B1B1B1" fill-opacity="0.54"/>
</g>
</svg>
